<svg xmlns="http://www.w3.org/2000/svg" viewBox="0 0 1280.00 1193.00" data-guides="{&quot;vertical&quot;:[],&quot;horizontal&quot;:[]}"><defs/><path fill="rgb(0, 0, 0)" stroke="none" fill-opacity="1" stroke-width="1" stroke-opacity="1" fill-rule="evenodd" id="tSvg4dec01d42b" title="Path 1" d="M426 982C426.33 983.33 433.33 993.67 434 995C434.67 996.33 441.17 997.83 442 999C442.83 1000.17 446.5 1003.83 447.5 1005C448.5 1006.17 462.17 1017.67 463 1019C463.83 1020.33 478.5 1031.83 479.5 1033C480.5 1034.17 520.83 1050.17 522 1049C523.17 1047.83 549.33 1066 550.5 1065C551.67 1064 617.67 1076.67 619 1075.5C620.33 1074.33 675 1076.67 676 1075.5C677 1074.33 711.17 1070 712 1069C712.83 1068 759 1055.33 760 1054C761 1052.67 785.5 1045.17 786.5 1044C787.5 1042.83 811.67 1026.17 812.5 1025C813.33 1023.83 826.67 1013.33 827.5 1012C828.33 1010.67 845.33 991.33 846 990C846.67 988.67 847.67 978.67 847 978C846.33 977.33 844.17 977.33 843 978C841.83 978.67 834.83 987.83 834 989C833.17 990.17 825 997.83 824 999C823 1000.17 816 1007.83 815 1009C814 1010.17 807 1017.83 806 1019C805 1020.17 797.17 1027.33 796 1028C794.83 1028.67 785.33 1033.33 784 1034C782.67 1034.67 773.33 1040.33 772 1041C770.67 1041.67 761.33 1045.67 760 1046C758.67 1046.33 749.33 1050.5 748 1051C746.67 1051.5 737.33 1053.83 736 1054C734.67 1054.17 725.33 1056.67 724 1057C722.67 1057.33 713.33 1058.83 712 1059C710.67 1059.17 701.33 1060.67 700 1061C698.67 1061.33 689.33 1063.83 688 1064C686.67 1064.17 677.33 1064 676 1064C674.67 1064 665.33 1063.33 664 1063C662.67 1062.67 657.33 1061.33 656 1061C654.67 1060.67 644.83 1058 644 1057C643.17 1056 643.67 1052.17 644 1051C644.33 1049.83 650.17 1043.17 651 1042C651.83 1040.83 659.67 1034 661 1033C662.33 1032 670.33 1026.17 671 1025C671.67 1023.83 674.83 1014.33 675 1013C675.17 1011.67 675.5 1010 675 1009C674.5 1008 673 1006.83 672 1007C671 1007.17 663.33 1013.5 662 1014C660.67 1014.5 651.33 1018.67 650 1019C648.67 1019.33 639.33 1019.83 638 1020C636.67 1020.17 627.33 1020.5 626 1020C624.67 1019.5 616.17 1014.83 615 1014C613.83 1013.17 612.17 1013 611 1012C609.83 1011 609.17 1008.67 608 1008C606.83 1007.33 604.83 1007.33 604 1008C603.17 1008.67 603 1010.67 603 1012C603 1013.33 604.5 1018.83 605 1020C605.5 1021.17 612 1027.83 613 1029C614 1030.17 621.83 1039 623 1040C624.17 1041 632.67 1046.17 634 1047C635.33 1047.83 637.17 1048.83 638 1050C638.83 1051.17 638.83 1056.67 638 1058C637.17 1059.33 635.33 1061 634 1062C632.67 1063 623.33 1064.83 622 1065C620.67 1065.17 611.33 1064.17 610 1064C608.67 1063.83 591.33 1062.33 590 1062C588.67 1061.67 579.33 1059.33 578 1059C576.67 1058.67 567.33 1057.5 566 1057C564.67 1056.5 555.33 1053.5 554 1053C552.67 1052.5 543.33 1049.67 542 1049C540.67 1048.33 531.33 1044.5 530 1044C528.67 1043.5 519.17 1039.5 518 1039C516.83 1038.5 508.33 1033.67 507 1033C505.67 1032.33 496.17 1028.83 495 1028C493.83 1027.17 486.17 1020.67 485 1020C483.83 1019.33 474.33 1014.83 473 1014C471.67 1013.17 464.17 1006.17 463 1005C461.83 1003.83 453.17 996.17 452 995C450.83 993.83 443.17 986 442 985C440.83 984 432.33 978.17 431 978C429.67 977.83 427.83 978 427 978C426.17 978 425.67 980.67 426 982Z"/><path fill="rgb(0, 0, 0)" stroke="none" fill-opacity="1" stroke-width="1" stroke-opacity="1" fill-rule="evenodd" id="tSvg6a4447a135" title="Path 33" d="M426 982C426.33 983.33 429.33 988.67 430 990C430.67 991.33 435.17 999.83 436 1001C436.83 1002.17 443 1011.83 444 1013C445 1014.17 452.17 1022.67 453 1024C453.83 1025.33 460 1032.83 461 1034C462 1035.17 469.67 1042.67 471 1044C472.33 1045.33 479.83 1053.83 481 1055C482.17 1056.17 491.83 1063 493 1064C494.17 1065 501.67 1073.17 503 1074C504.33 1074.83 508.83 1078 510 1079C511.17 1080 520.67 1085.33 522 1086C523.33 1086.67 532.67 1092.33 534 1093C535.33 1093.67 540.67 1097.33 542 1098C543.33 1098.67 552.67 1101.5 554 1102C555.33 1102.5 564.67 1104.33 566 1105C567.33 1105.67 576.67 1108.83 578 1109C579.33 1109.17 588.67 1111.67 590 1112C591.33 1112.33 600.67 1113.67 602 1114C603.33 1114.33 612.67 1115.83 614 1116C615.33 1116.17 624.67 1115.83 626 1116C627.33 1116.17 636.67 1117.83 638 1118C639.33 1118.17 648.67 1119 650 1119C651.33 1119 660.67 1119.17 662 1119C663.33 1118.83 672.67 1118 674 1118C675.33 1118 684.17 1118.17 685.5 1118C686.83 1117.83 696.67 1115.33 698 1115C699.33 1114.67 708.67 1111.33 710 1111C711.33 1110.67 720.67 1107.67 722 1107C723.33 1106.33 732.67 1102.5 734 1102C735.33 1101.5 744.83 1097.83 746 1097C747.17 1096.17 755.67 1090 757 1089C758.33 1088 766.83 1082.17 768 1081C769.17 1079.83 777.83 1072 779 1071C780.17 1070 787.67 1062.17 789 1061C790.33 1059.83 800 1051.17 801 1050C802 1048.83 809.17 1040 810 1039C810.83 1038 818 1029.33 819 1028C820 1026.67 826 1017.17 827 1016C828 1014.83 835.17 1006.17 836 1005C836.83 1003.83 842.17 995.33 843 994C843.83 992.67 845.33 991.33 846 990C846.67 988.67 847.67 978.67 847 978C846.33 977.33 844.17 977.33 843 978C841.83 978.67 814 1027.83 813 1029C812 1030.17 742.4392 1092.1174 741 1092.5C719.67 1098.17 737.7694 1097.9839 715.5 1103.5C683.7199 1111.3718 637.83 1111.5 583.5 1105C582.0892 1104.8312 549.7487 1094.2872 535.5 1088.5C531.2092 1086.7573 508.33 1071.5 507 1071C505.67 1070.5 498.17 1063.17 493 1055C487.83 1046.83 483.17 1046.17 481 1044C478.83 1041.83 472.17 1033.5 471 1032.5C469.83 1031.5 457.83 1017.17 456.5 1017C455.17 1016.83 427.83 978 427 978C426.17 978 425.67 980.67 426 982Z"/><path fill="rgb(0, 0, 0)" stroke="none" fill-opacity="1" stroke-width="1" stroke-opacity="1" fill-rule="evenodd" id="tSvg173fcbb071a" title="Path 3" d="M632 1031C632.5 1030.17 634.67 1030.17 636 1030C637.33 1029.83 638.67 1030 640 1030C641.33 1030 643 1029.5 644 1030C645 1030.5 646.17 1031.83 646 1033C645.83 1034.17 644 1035.83 643 1037C642 1038.17 641.17 1039.83 640 1040C638.83 1040.17 637.17 1038.83 636 1038C634.83 1037.17 633.67 1036.17 633 1035C632.33 1033.83 631.5 1031.83 632 1031Z"/><path fill="rgb(0, 0, 0)" stroke="none" fill-opacity="1" stroke-width="1" stroke-opacity="1" fill-rule="evenodd" id="tSvg648627998c" title="Path 2" d="M788 1050C788.33 1050.33 789.5 1051.33 789 1052C788.5 1052.67 783.33 1053.67 782 1055C780.67 1056.33 779.17 1056 778 1057C776.83 1058 771.17 1060.17 770 1061C768.83 1061.83 763.33 1065 762 1066C760.67 1067 755.33 1068.17 754 1069C752.67 1069.83 743.33 1073.33 742 1074C740.67 1074.67 730.83 1076.5 729.5 1077C728.17 1077.5 723.33 1079.33 722 1080C720.67 1080.67 714.83 1081.83 713.5 1082C712.17 1082.17 712.83 1083.67 711.5 1084C710.17 1084.33 707.33 1092.5 706 1093C704.67 1093.5 702.33 1098 701 1098.5C699.67 1099 694.33 1093.83 693 1094C691.67 1094.17 689.83 1088.67 688.5 1089C687.17 1089.33 681.83 1088.67 680.5 1089C679.17 1089.33 670.83 1089.83 669.5 1090C668.17 1090.17 661.83 1089.83 660.5 1090C659.17 1090.17 650.83 1090.83 649.5 1091C648.17 1091.17 637.83 1091 636.5 1091C635.17 1091 624.33 1091.17 623 1091C621.67 1090.83 613.33 1089.17 612 1089C610.67 1088.83 606.83 1089.17 605.5 1089C604.17 1088.83 600.33 1088 599 1088C597.67 1088 589.33 1087.17 588 1087C586.67 1086.83 582.33 1085.17 581 1085C579.67 1084.83 578.83 1086.17 577.5 1086C576.17 1085.83 576.33 1090.17 575 1090C573.67 1089.83 572.33 1095.33 571 1095C569.67 1094.67 565.33 1093.33 564 1093C562.67 1092.67 559.83 1085.5 558.5 1085C557.17 1084.5 554.33 1083.5 553 1083C551.67 1082.5 541.33 1077.5 540 1077C538.67 1076.5 530.17 1073.67 529 1073C527.83 1072.33 523.17 1070 522 1069C520.83 1068 514.17 1067 513 1066C511.83 1065 511.33 1065 510 1064C508.67 1063 494.17 1056.67 494 1056C493.83 1055.33 495.83 1054.83 497 1055C498.17 1055.17 499.67 1056.5 501 1057C502.33 1057.5 507.67 1058.33 509 1059C510.33 1059.67 511.67 1061.33 513 1062C514.33 1062.67 531.67 1070.5 533 1071C534.33 1071.5 547.67 1076.5 549 1077C550.33 1077.5 559 1081.83 560 1083C561 1084.17 562.17 1085.67 563 1087C563.83 1088.33 564 1090.17 565 1091C566 1091.83 567.67 1092.5 569 1092C570.33 1091.5 572 1089.33 573 1088C574 1086.67 574 1085.17 575 1084C576 1082.83 577.67 1081.17 579 1081C580.33 1080.83 581.67 1082.5 583 1083C584.33 1083.5 593.67 1084.83 595 1085C596.33 1085.17 597.67 1085.83 599 1086C600.33 1086.17 605.67 1085.83 607 1086C608.33 1086.17 609.67 1086.83 611 1087C612.33 1087.17 617.67 1086.83 619 1087C620.33 1087.17 621.67 1087.83 623 1088C624.33 1088.17 633.67 1087.83 635 1088C636.33 1088.17 637.67 1088.83 639 1089C640.33 1089.17 641.67 1089.17 643 1089C644.33 1088.83 645.67 1088.17 647 1088C648.33 1087.83 657.67 1088 659 1088C660.33 1088 669.67 1088.17 671 1088C672.33 1087.83 673.67 1087.17 675 1087C676.33 1086.83 681.67 1087.17 683 1087C684.33 1086.83 685.67 1086 687 1086C688.33 1086 690 1086.17 691 1087C692 1087.83 692.17 1089.83 693 1091C693.83 1092.17 694.83 1093.17 696 1094C697.17 1094.83 698.83 1096.17 700 1096C701.17 1095.83 702 1094.17 703 1093C704 1091.83 707.17 1086.33 708 1085C708.83 1083.67 709.83 1081.83 711 1081C712.17 1080.17 713.67 1080.33 715 1080C716.33 1079.67 717.67 1079.5 719 1079C720.33 1078.5 721.67 1077.5 723 1077C724.33 1076.5 729.67 1075.33 731 1075C732.33 1074.67 741.67 1071.33 743 1071C744.33 1070.67 753.67 1066.5 755 1066C756.33 1065.5 757.67 1065.5 759 1065C760.33 1064.5 765.67 1061.67 767 1061C768.33 1060.33 777.67 1054.83 779 1054C780.33 1053.17 786.17 1050.33 787 1050C787.83 1049.67 787.67 1049.67 788 1050Z"/><path fill="rgb(0, 0, 0)" stroke="none" fill-opacity="1" stroke-width="1" stroke-opacity="1" fill-rule="evenodd" id="tSvg28004b6d76" title="Path 4" d="M657 1025C657.5 1025 660 1025.83 660 1026C660 1026.17 657.5 1026.17 657 1026C656.5 1025.83 656.5 1025 657 1025Z"/><path fill="rgb(0, 0, 0)" stroke="none" fill-opacity="1" stroke-width="1" stroke-opacity="1" fill-rule="evenodd" id="tSvg192f0426901" title="Path 5" d="M818 1015C818 1015 820 1016 820 1016Z"/><path fill="rgb(0, 0, 0)" stroke="none" fill-opacity="1" stroke-width="1" stroke-opacity="1" fill-rule="evenodd" id="tSvg1895435c61f" title="Path 34" d="M761 956.5C759.8637 957.3531 754.33 961.33 753 962C751.67 962.67 746.5 966.33 743.5 967.5C742.0661 968.0592 737.17 970.5 735 970.5C733.4609 970.5 723.0641 971.8931 721.5 972C716.67 972.33 712 973.67 706.5 973C705.0895 972.8282 703.33 973.67 699 972C697.7215 971.5069 695.83 968.17 695.5 969.5C695.17 970.83 675.17 984.67 675 986C674.83 987.33 675.17 997.17 676 998C676.83 998.83 678.67 999.17 680 999C681.33 998.83 688.33 990.33 689 989C689.67 987.67 697.67 979.67 699 979C700.33 978.33 709.67 980 711 980C712.33 980 721.67 979.17 723 979C724.33 978.83 733.67 978.17 735 978C736.33 977.83 745.67 973.83 747 973C748.33 972.17 757.67 966.83 759 966C760.33 965.17 768.67 958.17 770 957C771.33 955.83 780 946.17 781 945C782 943.83 788.17 936.17 789 935C789.83 933.83 793.83 924.17 795 923C796.17 921.83 806.17 917 807 916C807.83 915 808.5 912.83 808 912C807.5 911.17 797.33 911.83 796 912C794.67 912.17 787.6055 925.2707 787 926.5C786.67 927.17 784.8586 932.0546 784.5 932.5C783.6406 933.5673 779.7656 938.1557 778.5 939.5C777.3331 940.7394 775.563 944.2007 774.5 945C773.17 946 769.5301 949.8613 769 950.5C768.17 951.5 764.33 954 761 956.5Z"/><path fill="rgb(0, 0, 0)" stroke="none" fill-opacity="1" stroke-width="1" stroke-opacity="1" fill-rule="evenodd" id="tSvg17a509858c6" title="Path 7" d="M728 902C726.67 902.5 717.33 907.33 716 908C714.67 908.67 705 914.83 704 916C703 917.17 697.17 926 696 927C694.83 928 688.83 936.67 688 938C687.17 939.33 683.5 948.67 683 950C682.5 951.33 680.33 960.67 680 962C679.67 963.33 678.33 972.67 678 974C677.67 975.33 675.17 984.67 675 986C674.83 987.33 675.17 997.17 676 998C676.83 998.83 678.67 999.17 680 999C681.33 998.83 688.33 990.33 689 989C689.67 987.67 694.67 971.17 696 970.5C697.33 969.83 689.17 960.67 690.5 955.5C691.83 950.33 693.67 943.17 697 938C699.33 933.83 705.67 925.83 707 925C708.33 924.17 719.17 914.33 720.5 913.5C721.83 912.67 731.67 910.17 734 910C744.33 907.83 745 909.17 752 910C759 910.83 765.67 915.67 770.5 917.5C785.33 923.33 793.83 924.17 795 923C796.17 921.83 806.17 917 807 916C807.83 915 808.5 912.83 808 912C807.5 911.17 797.33 911.83 796 912C794.67 912.17 785.33 912.33 784 912C782.67 911.67 773.33 906.67 772 906C770.67 905.33 762.33 902.33 761 902C759.67 901.67 750.33 900 749 900C747.67 900 737.83 900 737 900C736.17 900 729.33 901.5 728 902Z"/><path fill="rgb(0, 0, 0)" stroke="none" fill-opacity="1" stroke-width="1" stroke-opacity="1" fill-rule="evenodd" id="tSvg99e6a8adc9" title="Path 8" d="M723.5 910.5C724.33 910 736 905.33 737 906C738 906.67 736.5 912.17 737 913.5C737.5 914.83 739.17 920.17 739.5 921.5C739.83 922.83 739 928.67 739.5 930C740 931.33 739.17 935.67 739.5 937C739.83 938.33 739.5 942.17 739.5 943.5C739.5 944.83 737.17 951.17 737 952.5C736.83 953.83 734.17 960.5 733.5 961C732.83 961.5 728.33 965.83 723.5 965C720.67 964.17 718.5 960.33 718 959C717.5 957.67 719.67 954.83 720.5 952.5C721.33 946.17 719.67 944.83 719.5 943.5C719.33 942.17 719.83 932.83 719.5 931.5C719.17 930.17 718.5 925.33 718 924C717.5 922.67 718.17 914.67 718 913.5C717.83 912.33 722.67 911 723.5 910.5Z"/><path fill="rgb(0, 0, 0)" stroke="none" fill-opacity="1" stroke-width="1" stroke-opacity="1" fill-rule="evenodd" id="tSvg2d5f97a2c2" title="Path 36" d="M539 912C539.83 911.5 556 920.33 557 921C558 921.67 555 928.17 555.5 929.5C556 930.83 557.4097 933.6924 557 935C555.33 940.33 556.5 943.67 557 945C557.5 946.33 555.17 951.17 555.5 952.5C555.83 953.83 553.3164 954.5294 553.3164 955.8594C553.3164 957.1894 553.4864 962.17 553.3164 963.5C553.1464 964.83 548.3313 967.589 547.5 967.5C542.83 967 544.83 967.83 541 965C538.6281 963.2474 539.5 957.1894 539 955.8594C538.5 954.5294 536.17 952.33 536 951C535.83 949.67 536.17 944.83 536 943.5C535.83 942.17 535.33 938.33 535 937C534.67 935.67 535.5 930.1894 535 928.8594C534.5 927.5294 536.9864 917.67 536.8164 916.5C536.6464 915.33 538.17 912.5 539 912Z"/><path fill="rgb(0, 0, 0)" stroke="none" fill-opacity="1" stroke-width="1" stroke-opacity="1" fill-rule="evenodd" id="tSvg1ec5e18ae8" title="Path 10" d="M520 901C518.67 901.33 509.33 904.33 508 905C506.67 905.67 497.33 908.5 496 909C494.67 909.5 485.33 912.83 484 913C482.67 913.17 473.17 914 473 915C472.83 916 474 918 475 919C476 920 486.17 924.83 487 926C487.83 927.17 489.17 924.83 492 923C496.83 920.17 494.83 920.67 497.5 919C501.17 916.33 501.67 917.67 505.5 916C509.33 914.33 510 915 514 914C519 912 519.17 912.17 527 911.5C532.83 910.83 536.17 912.33 537.5 913C538.83 913.67 551.67 918.5 553 919C554.33 919.5 569.67 936.17 571 936.5C572.33 936.83 578.67 947.5 580 948C583.33 951.5 580.67 950.5 582 952.5C584.33 954.5 585.67 958.83 587 959C588.33 959.17 578.83 972.83 580 974C581.17 975.17 593.17 998.17 594 999C594.83 999.83 596.67 1000.17 598 1000C599.33 999.83 601.17 999 602 998C602.83 997 602.83 995.33 603 994C603.17 992.67 600.5 983.33 600 982C599.5 980.67 599.17 979.33 599 978C598.83 976.67 599.17 975.33 599 974C598.83 972.67 597.33 963.33 597 962C596.67 960.67 595.5 959.33 595 958C594.5 956.67 588.83 943.33 588 942C587.17 940.67 586 939.33 585 938C584 936.67 577.33 927.33 576 926C574.67 924.67 566.17 915 565 914C563.83 913 555.17 908.83 554 908C552.83 907.17 543.33 902.33 542 902C540.67 901.67 531.33 900 530 900C528.67 900 521.33 900.67 520 901Z"/><path fill="rgb(0, 0, 0)" stroke="none" fill-opacity="1" stroke-width="1" stroke-opacity="1" fill-rule="evenodd" id="tSvg6ab8479a97" title="Path 35" d="M503.5 937.5C503.17 931.83 503.6469 926.982 503.5 925.5C503.17 922.17 504.83 914 503.5 914.5C502.17 915 485.3298 912.33 483.9998 912.5C482.6698 912.67 473.1698 913.5 472.9998 914.5C472.8298 915.5 473.9998 917.5 474.9998 918.5C475.9998 919.5 486.1698 924.33 486.9998 925.5C487.8298 926.67 488.1698 932.33 488.9998 933.5C489.8298 934.67 493.6698 939.17 493.9998 940.5C494.3298 941.83 494.3298 943.17 494.9998 944.5C495.6698 945.83 497.1698 947.17 497.9998 948.5C498.8298 949.83 498.9998 951.5 499.9998 952.5C500.9998 953.5 505.1698 957.17 505.9998 958.5C506.8298 959.83 515.6698 966.83 516.9998 967.5C518.3298 968.17 527.6698 973 528.9998 973.5C530.3298 974 539.6698 976.17 540.9998 976.5C542.3298 976.83 551.6698 979 552.9998 979.5C554.3298 980 563.6698 980.5 564.9998 980.5C566.3298 980.5 575.6698 982.33 576.9998 982.5C578.3298 982.67 587.8298 986.33 588.9998 987.5C590.1698 988.67 593.1698 997.67 593.9998 998.5C594.8298 999.33 596.6698 999.67 597.9998 999.5C599.3298 999.33 601.1698 998.5 601.9998 997.5C602.8298 996.5 602.8298 994.83 602.9998 993.5C603.1698 992.17 600.4998 982.83 599.9998 981.5C599.4998 980.17 599.1698 978.83 598.9998 977.5C598.8298 976.17 599.1698 974.83 598.9998 973.5C598.8298 972.17 597.3298 962.83 596.9998 961.5C596.6698 960.17 590.4144 958.6334 588.9998 958.5C585.4998 958.17 580.8502 970.2032 579.5 971C576.67 972.67 571.0778 972.9714 569.5 973.5C567.5 974.17 563.3755 973.6429 556.5 973.5C552.1584 973.4097 548.4964 972.3589 540.9998 971C536.7803 970.2351 535.1867 970.3055 528.9998 967.5C524.41 965.4187 517.9687 959.469 516.9998 958.5C515.6698 957.17 506.7362 949.6075 505.9998 948.5C504.6698 946.5 503.5796 938.868 503.5 937.5Z"/><path fill="rgb(0, 0, 0)" stroke="none" fill-opacity="1" stroke-width="1" stroke-opacity="1" fill-rule="evenodd" id="tSvge0a1eb31d2" title="Path 13" d="M471 670C470 670.5 452.5 701.67 452 703C451.5 704.33 426.5 761.67 426 763C425.5 764.33 414.5 797.67 414 799C413.5 800.33 404.83 833.83 405 835C405.17 836.17 409.67 840.67 411 841C412.33 841.33 420 841 421 840C422 839 437.5 783.33 438 782C438.5 780.67 463.5 721.83 464 720.5C464.5 719.17 473.33 710 473 709C472.67 708 472.5 707.83 473 709C473.5 710.17 474.5 711.17 475 712.5C475.5 713.83 479.5 731.67 480 733C480.5 734.33 485.33 743.67 486 745C486.67 746.33 497.17 765.83 498 767C498.83 768.17 523 812 524 813C525 814 533.67 818.67 535 819C536.33 819.33 557.33 814 558 813C558.67 812 540 788.83 539.5 787.5C539 786.17 521.33 759.33 520.5 758C519.67 756.67 503.33 727.33 502.5 726C501.67 724.67 487 670.67 486 670C485 669.33 472 669.5 471 670Z"/><path fill="rgb(0, 0, 0)" stroke="none" fill-opacity="1" stroke-width="1" stroke-opacity="1" fill-rule="evenodd" id="tSvg7bbe76212f" title="Path 14" d="M461 719C461 719 462 721 462 721Z"/><path fill="rgb(0, 0, 0)" stroke="none" fill-opacity="1" stroke-width="1" stroke-opacity="1" fill-rule="evenodd" id="tSvg13fb9f4d80b" title="Path 15" d="M759 667C757.67 667.17 755.5 667 754.5 668C753.5 669 753.67 671.67 753 673C752.33 674.33 746.33 699.67 746 701C745.67 702.33 737.33 751.67 737 753C736.67 754.33 725.67 787.67 725 789C724.33 790.33 722.67 791.67 722 793C721.33 794.33 716.67 815.83 717 817C717.33 818.17 722.83 825.5 724 826C725.17 826.5 742.67 825.17 744 825C745.33 824.83 747 824 748 823C749 822 753.67 812.33 754 811C754.33 809.67 765.67 772.33 766 771C766.33 769.67 774.83 736.33 775 735C775.17 733.67 777.17 715.67 778 715C778.83 714.33 780.83 714.5 782 715C783.17 715.5 791.17 728.83 792 730C792.83 731.17 794.17 731.83 795 733C795.83 734.17 821.17 773.67 822 775C822.83 776.33 843.17 809.67 844 811C844.83 812.33 846.33 813.67 847 815C847.67 816.33 847.17 818 848 819C848.83 820 854.67 821.5 856 822C857.33 822.5 858.67 823.67 860 824C861.33 824.33 863.33 824.67 864 824C864.67 823.33 864.5 817.17 864 816C863.5 814.83 861.67 814.17 861 813C860.33 811.83 859.67 802.33 859 801C858.33 799.67 846 778.17 845 777C844 775.83 842 775.17 841 774C840 772.83 825.67 747.33 825 746C824.33 744.67 824.5 743.33 824 742C823.5 740.67 802.83 705.33 802 704C801.17 702.67 791.17 689.17 790 688C788.83 686.83 787 686.17 786 685C785 683.83 783 678.17 782 677C781 675.83 774.83 669 773.5 669C772.17 669 768.33 670.17 767 670C765.67 669.83 760.33 666.83 759 667Z"/><path fill="rgb(0, 0, 0)" stroke="none" fill-opacity="1" stroke-width="1" stroke-opacity="1" fill-rule="evenodd" id="tSvg186dc6dff9d" title="Path 19" d="M714 481C713.17 481.17 711.33 481.83 710 482C708.67 482.17 707.33 482 706 482C704.67 482 703.33 482 702 482C700.67 482 699.33 481.83 698 482C696.67 482.17 695.33 482.33 694 483C692.67 483.67 680.33 495.17 679 496C677.67 496.83 676.33 497 675 498C673.67 499 672.33 500.67 671 502C669.67 503.33 668.33 505 667 506C665.67 507 664.33 507.17 663 508C661.67 508.83 660.33 509.83 659 511C657.67 512.17 652 516.83 651 518C650 519.17 650 520.67 649 522C648 523.33 642.83 528.67 642 530C641.17 531.33 640.83 532.67 640 534C639.17 535.33 638 536.83 637 538C636 539.17 634.33 540 634 541C633.67 542 634.17 543.33 635 544C635.83 544.67 637.67 545 639 545C640.33 545 641.67 544.17 643 544C644.33 543.83 645.67 544 647 544C648.33 544 649.67 543.83 651 544C652.33 544.17 653.67 545 655 545C656.33 545 657.67 544.17 659 544C660.33 543.83 669.67 544.67 671 545C672.33 545.33 673.67 545.67 675 546C676.33 546.33 677.67 546.83 679 547C680.33 547.17 681.67 546.67 683 547C684.33 547.33 685.67 548.33 687 549C688.33 549.67 697.67 553.5 699 554C700.33 554.5 701.67 554.17 703 555C704.33 555.83 705.67 558.17 707 559C708.33 559.83 709.67 559.33 711 560C712.33 560.67 713.67 561.83 715 563C716.33 564.17 717.67 566 719 567C720.33 568 721.83 568 723 569C724.17 570 724.83 571.67 726 573C727.17 574.33 729 575.67 730 577C731 578.33 731.5 579.67 732 581C732.5 582.33 732.5 583.67 733 585C733.5 586.33 734.17 588.17 735 589C735.83 589.83 737.17 590.5 738 590C738.83 589.5 739 587 740 586C741 585 742.83 585 744 584C745.17 583 746 581.33 747 580C748 578.67 748.83 577 750 576C751.17 575 752.67 575 754 574C755.33 573 760.67 568 762 567C763.33 566 768 562.17 769 561C770 559.83 771 558.33 772 557C773 555.67 773.83 553.83 775 553C776.17 552.17 777.67 552.67 779 552C780.33 551.33 782 550.17 783 549C784 547.83 785 546.33 785 545C785 543.67 783.67 542.33 783 541C782.33 539.67 781.67 538.33 781 537C780.33 535.67 779.33 534.33 779 533C778.67 531.67 779.5 530.33 779 529C778.5 527.67 776.83 526.33 776 525C775.17 523.67 775 522.33 774 521C773 519.67 771 518.33 770 517C769 515.67 768.83 514.33 768 513C767.17 511.67 766.17 510.17 765 509C763.83 507.83 762 507.17 761 506C760 504.83 752.33 497.83 751 497C749.67 496.17 748.33 494.83 747 494C745.67 493.17 744.33 492.83 743 492C741.67 491.17 724.33 483.5 723 483C721.67 482.5 720.33 482.33 719 482C717.67 481.67 715.83 481.17 715 481C714.17 480.83 714.83 480.83 714 481Z"/><path fill="rgb(0, 0, 0)" stroke="none" fill-opacity="1" stroke-width="1" stroke-opacity="1" fill-rule="evenodd" id="tSvg3a7ccc470a" title="Path 17" d="M633 588C632.17 588.17 630.33 588.67 629 589C627.67 589.33 626.33 589.83 625 590C623.67 590.17 622.33 589.83 621 590C619.67 590.17 606.33 596.17 605 597C603.67 597.83 602.33 598.5 601 599C599.67 599.5 598.33 599.5 597 600C595.67 600.5 594.33 601.17 593 602C591.67 602.83 590.17 603.83 589 605C587.83 606.17 586.83 607.67 586 609C585.17 610.33 584.33 611.67 584 613C583.67 614.33 584.5 615.67 584 617C583.5 618.33 581.5 619.67 581 621C580.5 622.33 581.5 623.67 581 625C580.5 626.33 578.67 627.67 578 629C577.33 630.33 577.5 631.67 577 633C576.5 634.33 573.5 639.67 573 641C572.5 642.33 572 643.67 572 645C572 646.33 573 647.67 573 649C573 650.33 572.33 651.67 572 653C571.67 654.33 571 655.67 571 657C571 658.33 571.83 659.67 572 661C572.17 662.33 571.67 679.83 572 681C572.33 682.17 573 683.5 574 684C575 684.5 576.67 684.17 578 684C579.33 683.83 580.67 683.83 582 683C583.33 682.17 584.67 680.17 586 679C587.33 677.83 588.67 677 590 676C591.33 675 592.67 673.67 594 673C595.33 672.33 596.67 672.5 598 672C599.33 671.5 612.67 665.17 614 665C615.33 664.83 620.67 665.17 622 665C623.33 664.83 624.67 664.17 626 664C627.33 663.83 628.67 663.67 630 664C631.33 664.33 632.67 665.67 634 666C635.33 666.33 636.67 666 638 666C639.33 666 644.67 666.67 646 667C647.33 667.33 668.67 672.5 670 673C671.33 673.5 672.67 674.83 674 675C675.33 675.17 676.67 674.67 678 674C679.33 673.33 681.17 672.17 682 671C682.83 669.83 682.5 668.33 683 667C683.5 665.67 686 660.33 687 659C688 657.67 690 656.33 691 655C692 653.67 692.33 652.33 693 651C693.67 649.67 706 633.17 707 632C708 630.83 713.17 626.17 714 625C714.83 623.83 715.33 622.33 715 621C714.67 619.67 710.17 614 709 613C707.83 612 706.33 612 705 611C703.67 610 702.17 608.17 701 607C699.83 605.83 695.33 601.67 694 601C692.67 600.33 691.33 600.67 690 600C688.67 599.33 687.33 597.5 686 597C684.67 596.5 679.33 595.33 678 595C676.67 594.67 675.33 595.33 674 595C672.67 594.67 671.33 593.5 670 593C668.67 592.5 663.33 591.17 662 591C660.67 590.83 659.33 591.17 658 591C656.67 590.83 655.33 590.5 654 590C652.67 589.5 651.33 588.33 650 588C648.67 587.67 643.33 588.83 642 589C640.67 589.17 639.33 589.17 638 589C636.67 588.83 633.83 587.83 633 588Z"/><path fill="rgb(0, 0, 0)" stroke="none" fill-opacity="1" stroke-width="1" stroke-opacity="1" fill-rule="evenodd" id="tSvg124c57d0dfc" title="Path 21" d="M787 378C785.67 378.17 776.33 381.33 775 382C773.67 382.67 764.33 386.33 763 387C761.67 387.67 760.33 389.17 759 390C757.67 390.83 755.83 391 755 392C754.17 393 753.33 402.67 753 404C752.67 405.33 751.5 406.67 751 408C750.5 409.33 750.33 410.67 750 412C749.67 413.33 749.5 414.67 749 416C748.5 417.33 747.67 418.67 747 420C746.33 421.33 745.67 422.67 745 424C744.33 425.33 743.83 426.67 743 428C742.17 429.33 740.83 430.67 740 432C739.17 433.33 739 434.67 738 436C737 437.33 735 438.67 734 440C733 441.33 732 442.83 732 444C732 445.17 733 446.5 734 447C735 447.5 736.67 447.17 738 447C739.33 446.83 744.67 445.5 746 445C747.33 444.5 748.67 443.67 750 443C751.33 442.33 756.67 440.33 758 440C759.33 439.67 760.67 439 762 439C763.33 439 764.67 439.67 766 440C767.33 440.33 768.67 440.5 770 441C771.33 441.5 772.67 442.5 774 443C775.33 443.5 776.67 443.33 778 444C779.33 444.67 780.67 446.17 782 447C783.33 447.83 788.67 450 790 451C791.33 452 792.67 454 794 455C795.33 456 797 456 798 457C799 458 799.17 459.83 800 461C800.83 462.17 801.83 462.83 803 464C804.17 465.17 805.83 466.67 807 468C808.17 469.33 811.17 474.67 812 476C812.83 477.33 814.17 478.67 815 480C815.83 481.33 816.5 482.67 817 484C817.5 485.33 817.5 486.67 818 488C818.5 489.33 819.67 490.67 820 492C820.33 493.33 820 494.67 820 496C820 497.33 819.83 498.83 820 500C820.17 501.17 820.33 503 821 503C821.67 503 823.17 501.17 824 500C824.83 498.83 825.17 497.17 826 496C826.83 494.83 828 494.17 829 493C830 491.83 831 490.33 832 489C833 487.67 837 482.17 838 481C839 479.83 839.83 479 841 478C842.17 477 844.17 476.17 845 475C845.83 473.83 845.33 472.33 846 471C846.67 469.67 850 464.17 851 463C852 461.83 854.17 461.17 855 460C855.83 458.83 855.33 457.33 856 456C856.67 454.67 861.17 449.33 862 448C862.83 446.67 865.33 441.33 866 440C866.67 438.67 867.83 437.33 868 436C868.17 434.67 867.5 433.33 867 432C866.5 430.67 865.5 429.33 865 428C864.5 426.67 864.17 425.33 864 424C863.83 422.67 864.33 421.33 864 420C863.67 418.67 862.67 417.33 862 416C861.33 414.67 857.83 409.33 857 408C856.17 406.67 855.83 405.17 855 404C854.17 402.83 850 398.17 849 397C848 395.83 847.17 394.67 846 394C844.83 393.33 839.17 392 838 391C836.83 390 836.17 387.83 835 387C833.83 386.17 832.33 386.33 831 386C829.67 385.67 824.33 383.67 823 383C821.67 382.33 812.33 379.17 811 379C809.67 378.83 808.33 379.17 807 379C805.67 378.83 804.33 378.17 803 378C801.67 377.83 792.33 378 791 378C789.67 378 788.33 377.83 787 378Z"/><path fill="rgb(0, 0, 0)" stroke="none" fill-opacity="1" stroke-width="1" stroke-opacity="1" fill-rule="evenodd" id="tSvg69e2a936c8" title="Path 23" d="M500 369C498.83 369 497.33 369.83 496 370C494.67 370.17 493.33 369.67 492 370C490.67 370.33 489.33 371.17 488 372C486.67 372.83 481.33 376.33 480 377C478.67 377.67 469.17 381.17 468 382C466.83 382.83 466.17 384 465 385C463.83 386 454.33 392.17 453 393C451.67 393.83 442.33 398.67 441 399C439.67 399.33 438.33 398.67 437 399C435.67 399.33 434.33 400.5 433 401C431.67 401.5 422.33 403 421 403C419.67 403 410.33 404.83 409 405C407.67 405.17 398.33 404.83 397 405C395.67 405.17 394.33 405.83 393 406C391.67 406.17 382.33 406.83 381 407C379.67 407.17 370.33 408 369 408C367.67 408 366.33 407.17 365 407C363.67 406.83 362.33 407 361 407C359.67 407 350 409.17 349 410C348 410.83 347.17 411.83 347 413C346.83 414.17 347.33 415.67 348 417C348.67 418.33 349.83 419.83 351 421C352.17 422.17 353.67 422.83 355 424C356.33 425.17 358 426.67 359 428C360 429.33 365.67 438 367 439C368.33 440 376.67 448.83 378 450C379.33 451.17 388.67 458.83 390 460C391.33 461.17 400.83 466 402 467C403.17 468 403.83 469.83 405 471C406.17 472.17 415.67 477.17 417 478C418.33 478.83 427.67 484.17 429 485C430.33 485.83 439.67 489.67 441 490C442.33 490.33 451.67 491.5 453 492C454.33 492.5 455.67 494.5 457 495C458.33 495.5 459.67 494.83 461 495C462.33 495.17 463.67 495.83 465 496C466.33 496.17 471.67 496.5 473 497C474.33 497.5 475.67 498.67 477 499C478.33 499.33 483.67 499.83 485 500C486.33 500.17 487.67 499.67 489 500C490.33 500.33 491.67 501.5 493 502C494.33 502.5 499.67 502.83 501 503C502.33 503.17 507.67 504.33 509 504C510.33 503.67 511.83 503 513 502C514.17 501 514.83 499.33 516 498C517.17 496.67 518.83 495.33 520 494C521.17 492.67 522.33 491.33 523 490C523.67 488.67 523.83 487.33 524 486C524.17 484.67 524.33 467.33 524 466C523.67 464.67 522.5 463.33 522 462C521.5 460.67 521.33 459.33 521 458C520.67 456.67 520.5 455.33 520 454C519.5 452.67 512.5 439.33 512 438C511.5 436.67 509.5 431.33 509 430C508.5 428.67 508.5 427.33 508 426C507.5 424.67 503.33 411.33 503 410C502.67 408.67 502.17 407.33 502 406C501.83 404.67 502.17 395.33 502 394C501.83 392.67 501.17 391.33 501 390C500.83 388.67 501 387.33 501 386C501 384.67 502.83 375.33 503 374C503.17 372.67 503.5 370.83 503 370C502.5 369.17 501.17 369 500 369Z"/><path fill="rgb(0, 0, 0)" stroke="none" fill-opacity="1" stroke-width="1" stroke-opacity="1" fill-rule="evenodd" id="tSvg13c8e97f3e7" title="Path 25" d="M793 229C791.67 229.17 782.33 228.83 781 229C779.67 229.17 770.33 231.83 769 232C767.67 232.17 758.33 233.5 757 234C755.67 234.5 754.33 235.67 753 236C751.67 236.33 750.33 235.67 749 236C747.67 236.33 738.33 241.33 737 242C735.67 242.67 734.33 243.5 733 244C731.67 244.5 730.33 244.17 729 245C727.67 245.83 719 255.67 718 257C717 258.33 715.67 259.67 715 261C714.33 262.33 712.83 271.67 713 273C713.17 274.33 713.17 275.83 714 277C714.83 278.17 720.67 281 722 282C723.33 283 724.67 285 726 286C727.33 287 728.83 287 730 288C731.17 289 732 290.67 733 292C734 293.33 737.83 298.67 739 300C740.17 301.33 741.83 302.67 743 304C744.17 305.33 745.17 306.67 746 308C746.83 309.33 747.5 310.67 748 312C748.5 313.33 748.5 314.67 749 316C749.5 317.33 750 318.83 751 320C752 321.17 753.67 322.33 755 323C756.33 323.67 757.67 324.17 759 324C760.33 323.83 761.83 322.67 763 322C764.17 321.33 764.83 321 766 320C767.17 319 768.67 317 770 316C771.33 315 772.67 314.83 774 314C775.33 313.17 776.67 311.67 778 311C779.33 310.33 780.67 310.17 782 310C783.33 309.83 784.67 310.33 786 310C787.33 309.67 788.67 308.5 790 308C791.33 307.5 796.67 306.17 798 306C799.33 305.83 804.67 306 806 306C807.33 306 816.67 305.83 818 306C819.33 306.17 820.67 306.83 822 307C823.33 307.17 832.67 307.5 834 308C835.33 308.5 836.67 309.33 838 310C839.33 310.67 848.67 315.17 850 316C851.33 316.83 861 324.67 862 326C863 327.33 867.17 336.67 868 338C868.83 339.33 876 348.67 877 350C878 351.33 879.33 352.67 880 354C880.67 355.33 880.33 356.67 881 358C881.67 359.33 882.83 360.83 884 362C885.17 363.17 886.67 364 888 365C889.33 366 891 368 892 368C893 368 893.67 366.17 894 365C894.33 363.83 894 362.33 894 361C894 359.67 894 350.33 894 349C894 347.67 894 338.33 894 337C894 335.67 894 334.33 894 333C894 331.67 894 322.33 894 321C894 319.67 894.17 318.33 894 317C893.83 315.67 893.17 314.33 893 313C892.83 311.67 893 302.33 893 301C893 299.67 892.33 290.33 892 289C891.67 287.67 891.17 286.33 891 285C890.83 283.67 890.33 274.33 890 273C889.67 271.67 887.83 262 887 261C886.17 260 884.17 259.67 883 259C881.83 258.33 881 258 880 257C879 256 878.17 254.17 877 253C875.83 251.83 874.33 251.17 873 250C871.67 248.83 870.33 247 869 246C867.67 245 858.33 241 857 240C855.67 239 854.33 236.83 853 236C851.67 235.17 842.33 233.33 841 233C839.67 232.67 830.33 229.17 829 229C827.67 228.83 818.33 227 817 227C815.67 227 806.33 228.17 805 228C803.67 227.83 794.33 228.83 793 229Z"/><path fill="rgb(0, 0, 0)" stroke="none" fill-opacity="1" stroke-width="1" stroke-opacity="1" fill-rule="evenodd" id="tSvg51081729e0" title="Path 27" d="M387 176C386.17 176.67 385 178.67 384 180C383 181.33 378.67 186.67 378 188C377.33 189.33 377.67 190.67 377 192C376.33 193.33 372 198.83 371 200C370 201.17 368.83 201.83 368 203C367.17 204.17 363.67 209.67 363 211C362.33 212.33 362.83 213.67 362 215C361.17 216.33 358.83 217.67 358 219C357.17 220.33 357.67 221.67 357 223C356.33 224.33 354.83 225.67 354 227C353.17 228.33 352.83 229.67 352 231C351.17 232.33 349.67 233.67 349 235C348.33 236.33 348.33 237.67 348 239C347.67 240.33 344.5 249.67 344 251C343.5 252.33 342.5 253.67 342 255C341.5 256.33 338.5 265.67 338 267C337.5 268.33 337.17 269.67 337 271C336.83 272.33 336.67 273.67 337 275C337.33 276.33 338.33 277.67 339 279C339.67 280.33 340.5 281.67 341 283C341.5 284.33 341.5 285.67 342 287C342.5 288.33 346.33 297.67 347 299C347.67 300.33 351.5 305.67 352 307C352.5 308.33 352.33 309.67 353 311C353.67 312.33 354.83 314.17 356 315C357.17 315.83 358.67 315.17 360 316C361.33 316.83 362.67 318.83 364 320C365.33 321.17 366.83 322 368 323C369.17 324 369.83 325.33 371 326C372.17 326.67 373.67 326.33 375 327C376.33 327.67 377.67 329.33 379 330C380.33 330.67 381.67 330.67 383 331C384.33 331.33 385.67 331.5 387 332C388.33 332.5 389.67 333.5 391 334C392.33 334.5 393.67 334.67 395 335C396.33 335.33 397.67 335.67 399 336C400.33 336.33 401.67 336.5 403 337C404.33 337.5 405.67 338.5 407 339C408.33 339.5 409.67 339.83 411 340C412.33 340.17 413.67 339.83 415 340C416.33 340.17 417.67 340.67 419 341C420.33 341.33 421.67 341.83 423 342C424.33 342.17 425.67 341.83 427 342C428.33 342.17 429.67 343 431 343C432.33 343 433.67 342.17 435 342C436.33 341.83 437.67 341.83 439 342C440.33 342.17 441.67 343 443 343C444.33 343 461.67 340.17 463 340C464.33 339.83 465.67 339.5 467 339C468.33 338.5 469.67 337.5 471 337C472.33 336.5 477.67 336.5 479 336C480.33 335.5 481.67 333.67 483 333C484.33 332.33 485.67 332.5 487 332C488.33 331.5 501.67 325 503 324C504.33 323 505.67 321.17 507 320C508.33 318.83 509.67 317.5 511 317C512.33 316.5 513.67 317.33 515 317C516.33 316.67 518 316 519 315C520 314 526 304.33 527 303C528 301.67 528.83 300.17 530 299C531.17 297.83 532.83 297.17 534 296C535.17 294.83 535.83 293.33 537 292C538.17 290.67 540.33 289.33 541 288C541.67 286.67 541.5 285.33 541 284C540.5 282.67 539.17 280.83 538 280C536.83 279.17 535.33 279.5 534 279C532.67 278.5 531.33 277.33 530 277C528.67 276.67 527.33 277 526 277C524.67 277 523.33 277.17 522 277C520.67 276.83 503.33 275.83 502 276C500.67 276.17 499.33 277 498 277C496.67 277 495.33 276.17 494 276C492.67 275.83 483.33 276.33 482 276C480.67 275.67 479.33 274.33 478 274C476.67 273.67 467.33 274.33 466 274C464.67 273.67 463.33 272.67 462 272C460.67 271.33 447.33 267.67 446 267C444.67 266.33 443.33 264.83 442 264C440.67 263.17 439.33 262.83 438 262C436.67 261.17 428.17 252.33 427 251C425.83 249.67 417.83 241.33 417 240C416.17 238.67 415.83 237.33 415 236C414.17 234.67 413.17 233.33 412 232C410.83 230.67 409 229.33 408 228C407 226.67 406.5 225.33 406 224C405.5 222.67 404.67 217.33 404 216C403.33 214.67 401.83 213.33 401 212C400.17 210.67 399.67 209.33 399 208C398.33 206.67 396.5 201.33 396 200C395.5 198.67 394.5 197.33 394 196C393.5 194.67 391.5 189.33 391 188C390.5 186.67 390.17 185.33 390 184C389.83 182.67 389.5 176.67 389 176C388.5 175.33 387.83 175.33 387 176Z"/><path fill="rgb(0, 0, 0)" stroke="none" fill-opacity="1" stroke-width="1" stroke-opacity="1" fill-rule="evenodd" id="tSvg18eb77fe3a1" title="Path 29" d="M732 87C730.83 87.33 729.33 88.33 728 89C726.67 89.67 725.33 90.5 724 91C722.67 91.5 713.33 94.5 712 95C710.67 95.5 701.33 99.5 700 100C698.67 100.5 689.33 104.17 688 105C686.67 105.83 685.33 107.17 684 108C682.67 108.83 673.33 113.83 672 115C670.67 116.17 669 117.67 668 119C667 120.33 667 121.83 666 123C665 124.17 657.83 131.67 657 133C656.17 134.33 653.83 135.67 653 137C652.17 138.33 649.5 147.67 649 149C648.5 150.33 648.67 151.67 648 153C647.33 154.33 644.33 159.67 644 161C643.67 162.33 640.33 171.67 640 173C639.67 174.33 637.5 183.67 637 185C636.5 186.33 635.33 187.67 635 189C634.67 190.33 634.17 195.67 634 197C633.83 198.33 634.33 199.67 634 201C633.67 202.33 631 207.67 631 209C631 210.33 631.67 211.67 632 213C632.33 214.33 633.17 219.67 633 221C632.83 222.33 632 223.67 632 225C632 226.33 635.33 235.67 636 237C636.67 238.33 641.17 247.67 642 249C642.83 250.33 646.83 256.17 648 257C649.17 257.83 650.67 258 652 258C653.33 258 654.67 257 656 257C657.33 257 658.67 257.83 660 258C661.33 258.17 666.67 258.83 668 259C669.33 259.17 670.67 258.67 672 259C673.33 259.33 674.67 260.5 676 261C677.33 261.5 678.83 262.17 680 262C681.17 261.83 682.33 261 683 260C683.67 259 683.5 257.33 684 256C684.5 254.67 685.5 253.33 686 252C686.5 250.67 687.67 245.33 688 244C688.33 242.67 688.83 241.33 689 240C689.17 238.67 688.83 237.33 689 236C689.17 234.67 689.5 233.33 690 232C690.5 230.67 691.5 229.33 692 228C692.5 226.67 695.33 221.33 696 220C696.67 218.67 696.5 217.33 697 216C697.5 214.67 703 205.33 704 204C705 202.67 705.83 201.17 707 200C708.17 198.83 710 198.17 711 197C712 195.83 712.17 194.17 713 193C713.83 191.83 722.67 185.83 724 185C725.33 184.17 734.67 178.67 736 178C737.33 177.33 746.67 172.5 748 172C749.33 171.5 758.67 169.5 760 169C761.33 168.5 770.67 166 772 166C773.33 166 782.67 164 784 164C785.33 164 786.67 164.83 788 165C789.33 165.17 802.67 164.83 804 165C805.33 165.17 806.67 166 808 166C809.33 166 810.67 165.17 812 165C813.33 164.83 814.67 164.83 816 165C817.33 165.17 822.67 166.17 824 166C825.33 165.83 826.67 165.33 828 165C829.33 164.67 831.33 164.83 832 164C832.67 163.17 832.5 161.33 832 160C831.5 158.67 830.17 157.33 829 156C827.83 154.67 822 149.33 821 148C820 146.67 820 145.33 819 144C818 142.67 809.17 135.17 808 134C806.83 132.83 799.33 125.83 798 125C796.67 124.17 795.33 123.17 794 122C792.67 120.83 784.33 112.83 783 112C781.67 111.17 780.33 110.67 779 110C777.67 109.33 776.33 108.83 775 108C773.67 107.17 764.33 100.83 763 100C761.67 99.17 760.33 97.67 759 97C757.67 96.33 748.33 92.5 747 92C745.67 91.5 740.33 89.5 739 89C737.67 88.5 736.17 87.33 735 87C733.83 86.67 733.17 86.67 732 87Z"/><path fill="rgb(0, 0, 0)" stroke="none" fill-opacity="1" stroke-width="1" stroke-opacity="1" fill-rule="evenodd" id="tSvgc1a86d95e9" title="Path 31" d="M599 66C597.83 66.17 596.33 66.83 595 67C593.67 67.17 584.33 68.83 583 69C581.67 69.17 572.33 68.67 571 69C569.67 69.33 568.33 70.5 567 71C565.67 71.5 564.33 71.5 563 72C561.67 72.5 560.33 73.67 559 74C557.67 74.33 556.33 73.67 555 74C553.67 74.33 544.33 77.5 543 78C541.67 78.5 540.33 79.67 539 80C537.67 80.33 528.33 81.5 527 82C525.67 82.5 516.33 85.5 515 86C513.67 86.5 512.33 87.33 511 88C509.67 88.67 508.33 89.5 507 90C505.67 90.5 496.33 93.5 495 94C493.67 94.5 492.33 94.5 491 95C489.67 95.5 488 96 487 97C486 98 485.33 99.67 485 101C484.67 102.33 485.33 103.67 485 105C484.67 106.33 483.67 107.67 483 109C482.33 110.33 478.5 119.67 478 121C477.5 122.33 477.5 123.67 477 125C476.5 126.33 475.5 127.67 475 129C474.5 130.33 474 131.67 474 133C474 134.33 474.83 135.67 475 137C475.17 138.33 475.17 143.67 475 145C474.83 146.33 474 147.67 474 149C474 150.33 474.67 151.67 475 153C475.33 154.33 477.5 159.67 478 161C478.5 162.33 480.67 171.67 481 173C481.33 174.33 481.5 175.67 482 177C482.5 178.33 483.5 179.67 484 181C484.5 182.33 484.5 183.67 485 185C485.5 186.33 493.17 199.67 494 201C494.83 202.33 499 211.83 500 213C501 214.17 502.83 214.83 504 216C505.17 217.17 506 218.67 507 220C508 221.33 509.17 222.67 510 224C510.83 225.33 511 227 512 228C513 229 514.67 229 516 230C517.33 231 519 232.67 520 234C521 235.33 521.17 236.67 522 238C522.83 239.33 523.83 241 525 242C526.17 243 527.67 243.33 529 244C530.33 244.67 531.67 245 533 246C534.33 247 535.67 249 537 250C538.33 251 539.67 251.17 541 252C542.33 252.83 543.67 254.17 545 255C546.33 255.83 551.67 258.5 553 259C554.33 259.5 555.67 259.5 557 260C558.33 260.5 563.67 262.33 565 263C566.33 263.67 567.67 265.17 569 266C570.33 266.83 571.67 267.67 573 268C574.33 268.33 575.67 268.33 577 268C578.33 267.67 579.67 266.67 581 266C582.33 265.33 583.67 264.33 585 264C586.33 263.67 587.67 264.33 589 264C590.33 263.67 591.67 262.5 593 262C594.33 261.5 595.67 261.5 597 261C598.33 260.5 599.67 259.33 601 259C602.33 258.67 603.67 259 605 259C606.33 259 607.67 259.17 609 259C610.33 258.83 611.67 258.17 613 258C614.33 257.83 615.67 258.17 617 258C618.33 257.83 620.17 257.83 621 257C621.83 256.17 622.17 254.33 622 253C621.83 251.67 621 250.33 620 249C619 247.67 617.33 246.17 616 245C614.67 243.83 610 239.33 609 238C608 236.67 607.17 235.17 606 234C604.83 232.83 599.17 229.17 598 228C596.83 226.83 595.67 225.33 595 224C594.33 222.67 594.67 221.33 594 220C593.33 218.67 588.67 213.33 588 212C587.33 210.67 587.5 209.33 587 208C586.5 206.67 582.5 197.33 582 196C581.5 194.67 576.5 181.33 576 180C575.5 178.67 572.17 165.33 572 164C571.83 162.67 570.67 133.33 571 132C571.33 130.67 572.67 129.33 573 128C573.33 126.67 576.33 113.33 577 112C577.67 110.67 581.33 101.33 582 100C582.67 98.67 583.83 97.33 585 96C586.17 94.67 591.83 90.17 593 89C594.17 87.83 595 86.17 596 85C597 83.83 601.67 79.67 603 79C604.33 78.33 605.67 78.67 607 78C608.33 77.33 609.83 76.17 611 75C612.17 73.83 613.5 72.33 614 71C614.5 69.67 614.67 67.83 614 67C613.33 66.17 600.17 65.83 599 66Z"/></svg>